<?xml version="1.0" standalone="no"?>
<!DOCTYPE svg PUBLIC "-//W3C//DTD SVG 20010904//EN"
 "http://www.w3.org/TR/2001/REC-SVG-20010904/DTD/svg10.dtd">
<svg version="1.0" xmlns="http://www.w3.org/2000/svg"
 width="253.000000pt" height="253.000000pt" viewBox="0 0 253.000000 253.000000"
 preserveAspectRatio="xMidYMid meet">
<metadata>
Created by potrace 1.11, written by Peter Selinger 2001-2013
</metadata>
<g transform="translate(0.000000,253.000000) scale(0.100000,-0.100000)"
fill="#000000" stroke="none">
<path d="M0 1500 l0 -1030 595 0 c562 0 594 1 588 17 -6 17 -6 17 11 0 14 -13
26 -16 50 -11 17 3 34 11 38 17 4 7 12 6 23 -3 14 -11 17 -10 22 8 3 12 12 22
20 22 9 0 13 -6 9 -15 -4 -12 5 -15 52 -15 59 0 162 24 162 38 0 4 25 16 55
27 30 10 55 22 55 26 0 5 11 3 25 -3 31 -14 31 -26 0 -72 l-24 -36 67 0 67 0
27 52 c15 28 26 53 24 56 -3 2 -12 -10 -21 -27 -21 -42 -27 -39 -9 4 8 20 12
41 8 47 -4 6 -3 9 2 5 5 -3 20 13 32 36 21 37 21 39 3 17 -11 -14 -21 -29 -21
-34 0 -5 -3 -7 -6 -4 -3 4 2 20 11 38 9 17 14 38 11 46 -3 8 -2 13 3 10 5 -3
14 7 19 24 7 18 7 32 1 35 -15 10 -10 25 6 19 19 -8 19 7 0 32 -13 17 -14 17
-15 2 0 -10 -4 -18 -9 -18 -5 0 -12 -20 -15 -44 -4 -24 -14 -50 -22 -57 -9 -7
-12 -20 -8 -32 4 -12 2 -17 -4 -13 -6 3 -15 -6 -20 -22 -5 -15 -13 -36 -17
-47 l-8 -20 16 20 c15 19 16 18 14 -17 -1 -21 -5 -38 -10 -38 -4 0 -6 -3 -6
-7 1 -5 0 -19 -1 -33 l-2 -25 -7 26 c-14 43 -31 69 -46 69 -8 0 -15 5 -15 11
0 5 -4 7 -10 4 -5 -3 -10 -1 -10 4 0 6 6 11 14 11 8 0 20 16 27 35 8 21 20 35
30 35 12 0 20 14 29 53 20 87 21 91 30 77 13 -21 23 53 17 120 -6 67 4 93 21
55 7 -15 9 -31 6 -37 -4 -7 -2 -8 4 -4 7 4 17 -3 24 -18 8 -19 19 -26 40 -26
19 0 38 -10 54 -27 14 -15 32 -28 42 -29 43 -5 149 -32 171 -43 13 -7 55 -17
93 -22 90 -11 98 -17 51 -40 -21 -10 -63 -37 -93 -59 -30 -22 -59 -40 -63 -40
-14 0 -157 -102 -157 -111 0 -5 -7 -9 -15 -9 -8 0 -15 -5 -15 -11 0 -6 -7 -8
-17 -5 -9 4 -20 1 -25 -6 -8 -10 -11 -10 -15 -1 -6 17 -20 16 -27 -2 -5 -13
32 -15 294 -15 l300 0 0 1030 0 1030 -1265 0 -1265 0 0 -1030z m1466 926 c10
-8 17 -17 14 -19 -3 -3 -16 3 -30 13 -29 22 -14 27 16 6z m-662 -69 c-6 -16
-63 -51 -70 -44 -4 4 64 57 73 57 1 0 0 -6 -3 -13z m-131 -72 c-3 -9 -8 -14
-10 -11 -3 3 -2 9 2 15 9 16 15 13 8 -4z m719 -105 c12 0 18 -8 18 -22 1 -27
28 -90 29 -67 1 18 56 25 66 8 4 -5 15 -9 25 -9 10 0 25 -8 32 -17 14 -20 58
-26 58 -9 0 6 -4 18 -9 26 -17 26 0 31 21 5 18 -24 46 -36 33 -15 -3 6 -1 10
5 10 6 0 17 -15 25 -34 8 -19 19 -37 25 -41 5 -3 10 -15 10 -25 0 -11 6 -25
14 -32 10 -9 11 -20 5 -37 -5 -13 -7 -33 -4 -45 6 -21 6 -21 -10 -1 -9 11 -22
29 -29 40 -20 30 -30 12 -15 -29 7 -20 11 -37 8 -40 -2 -2 -30 -6 -61 -9 -32
-3 -67 -11 -78 -17 -12 -7 -24 -9 -27 -6 -4 3 -11 2 -17 -3 -23 -18 -138 -60
-151 -54 -9 3 -18 -4 -24 -20 -15 -40 -98 -61 -130 -33 -26 22 -75 34 -125 30
-26 -2 -51 -6 -56 -9 -15 -9 1 -34 18 -29 9 3 6 -2 -8 -10 -22 -14 -23 -15 -5
-16 12 0 -1 -10 -32 -24 -28 -14 -65 -34 -81 -46 -17 -12 -35 -19 -41 -16 -7
4 -11 -1 -11 -12 0 -11 7 -23 16 -26 26 -10 124 -7 124 4 0 6 -6 10 -12 11 -9
0 -9 2 -2 5 7 3 11 13 9 22 -1 9 0 12 2 7 16 -44 93 -35 93 10 0 30 16 33 25
4 7 -20 7 -19 32 5 30 30 42 33 41 9 -1 -28 21 -75 32 -68 5 3 10 13 10 21 0
9 5 12 12 8 8 -5 9 -2 4 12 -22 56 -19 71 15 83 49 17 59 14 74 -23 17 -41 26
-48 45 -36 11 7 11 13 -3 34 -21 31 -22 42 -3 26 21 -17 61 -9 60 13 -2 19 11
23 21 7 10 -16 53 -12 82 7 25 16 26 16 21 1 -6 -15 -3 -15 35 2 43 20 55 34
38 44 -6 4 -8 13 -4 21 3 8 0 15 -6 15 -6 0 -11 -3 -11 -8 0 -4 -33 -7 -72 -8
-40 0 -65 1 -55 3 9 3 17 8 17 12 0 4 6 8 13 8 6 1 36 6 66 12 81 17 86 15
112 -33 13 -25 26 -43 29 -41 19 11 26 -9 56 -155 3 -14 8 -61 11 -106 4 -68
2 -82 -11 -87 -11 -4 -16 -1 -17 11 0 11 -2 12 -6 4 -7 -19 18 -47 28 -30 11
17 23 3 15 -18 -4 -10 -13 -14 -26 -11 -26 7 -26 -14 0 -38 21 -19 28 -65 9
-65 -7 0 -9 -9 -4 -22 3 -13 9 -41 12 -63 3 -22 10 -43 16 -47 6 -4 8 -11 3
-15 -5 -4 -11 -2 -13 5 -3 6 -9 9 -15 6 -6 -4 -8 2 -3 16 5 15 4 20 -4 16 -6
-4 -11 -19 -11 -34 l0 -26 -16 23 c-13 18 -18 20 -26 10 -7 -11 -11 -11 -15
-1 -2 6 -10 12 -16 12 -6 0 0 -11 13 -25 12 -13 27 -23 32 -22 6 1 12 -26 15
-60 3 -43 1 -63 -7 -63 -6 0 -8 -5 -5 -10 3 -6 -1 -13 -9 -16 -9 -3 -13 -11
-9 -18 4 -6 8 -20 10 -31 1 -11 -1 -14 -3 -7 -3 6 -12 12 -19 12 -14 0 -28
-27 -20 -40 3 -4 1 -19 -4 -32 -7 -16 -10 -18 -10 -6 -1 15 -6 14 -43 -7 -24
-14 -51 -25 -60 -25 -10 0 -18 -5 -18 -11 0 -5 -4 -7 -10 -4 -5 3 -18 1 -29
-4 -17 -10 -18 -7 -13 36 4 35 2 44 -8 38 -7 -4 -16 -2 -21 6 -7 11 -9 10 -9
-5 0 -13 -5 -17 -20 -13 -11 3 -20 1 -20 -4 0 -5 -7 -9 -15 -9 -10 0 -15 -7
-13 -17 3 -18 -2 -19 -37 -8 -13 5 -16 4 -7 -2 10 -8 9 -17 -3 -46 -8 -20 -20
-37 -26 -37 -8 0 -7 5 1 15 16 20 10 26 -19 18 -13 -3 -20 -11 -17 -19 3 -8 1
-14 -4 -14 -6 0 -10 -9 -10 -20 0 -20 -32 -44 -44 -33 -3 3 -6 13 -6 22 0 13
2 13 9 3 7 -11 9 -11 14 2 4 9 1 16 -5 16 -7 0 -6 5 2 15 11 13 10 18 -5 29
-10 7 -15 18 -11 24 4 7 3 12 -2 12 -5 0 -15 -13 -22 -29 -6 -16 -18 -32 -26
-35 -8 -3 -13 -2 -9 3 3 5 2 16 -1 25 -5 12 -10 13 -26 5 -18 -10 -19 -9 -8
11 12 22 5 43 -8 25 -4 -6 -19 -10 -33 -10 -21 -1 -26 4 -24 21 3 31 15 46 32
40 8 -3 11 -1 8 5 -4 5 -1 16 5 24 8 10 9 15 2 15 -6 0 -14 -5 -17 -11 -4 -6
-14 -8 -22 -4 -9 3 -24 -2 -33 -10 -16 -14 -18 -14 -23 5 -4 17 -3 19 9 9 8
-6 14 -7 14 -2 0 5 12 13 26 19 31 10 43 61 18 71 -8 3 -14 16 -14 28 0 13 -4
27 -10 30 -6 4 -10 -7 -10 -24 0 -31 -14 -42 -23 -18 -3 6 -5 -4 -5 -23 0 -53
-1 -62 -10 -56 -14 8 -6 71 11 96 19 27 22 45 8 35 -5 -3 -12 -1 -16 5 -3 5
-2 10 3 10 6 0 8 9 5 20 -3 11 -10 20 -15 20 -5 0 -8 8 -6 17 3 16 -22 51 -39
55 -15 2 -32 33 -33 56 0 12 -4 22 -10 22 -5 0 -10 -4 -10 -10 0 -5 -4 -10 -9
-10 -12 0 -61 106 -61 133 0 12 -9 35 -19 51 -11 17 -18 33 -16 36 2 4 -4 16
-14 27 -26 28 -43 62 -36 73 3 6 0 11 -7 11 -7 1 10 5 37 9 28 4 51 3 53 -2 2
-4 7 -8 11 -8 5 0 6 22 3 49 -4 42 -1 50 19 65 23 16 23 16 2 16 -25 0 -54
-36 -46 -56 5 -15 -22 -19 -82 -15 -39 3 -45 10 -47 54 -1 37 -21 51 -32 22
-9 -26 -25 -17 -43 25 -10 22 -21 40 -25 40 -5 0 -8 7 -8 17 0 18 82 101 87
87 11 -29 22 -39 35 -26 17 17 38 15 38 -4 0 -12 5 -14 18 -9 9 4 27 10 39 12
34 8 48 29 33 48 -10 12 -10 22 -2 39 6 14 14 51 17 83 4 32 12 63 17 68 7 7
9 -1 4 -25 -5 -30 -4 -32 6 -15 16 26 19 75 4 72 -6 -1 -17 -9 -25 -17 -7 -8
-5 -2 4 14 40 66 105 120 105 86 0 -21 1 -26 17 -49 10 -16 13 -35 9 -62 -4
-26 -1 -49 9 -69 8 -16 15 -39 15 -50 0 -13 5 -20 13 -17 8 2 12 26 12 73 0
57 3 69 18 72 9 2 17 -1 17 -7 0 -5 12 -22 26 -36 24 -25 27 -25 44 -10 10 9
17 22 15 28 -3 7 12 25 33 40 31 24 37 26 42 12 5 -14 8 -14 24 4 24 26 36 27
36 1 0 -11 5 -20 10 -20 6 0 10 11 10 25 0 44 23 116 34 105 6 -6 18 -10 28
-10z m-262 -105 c-7 -9 -15 -13 -19 -10 -3 3 1 10 9 15 21 14 24 12 10 -5z
m16 -72 c-10 -10 -19 5 -10 18 6 11 8 11 12 0 2 -7 1 -15 -2 -18z m674 -202
c0 -5 -7 -14 -15 -21 -12 -10 -15 -10 -15 2 0 8 3 18 7 21 9 10 23 9 23 -2z
m30 -116 c4 -51 -2 -62 -11 -20 -4 22 -10 54 -14 70 l-6 30 14 -25 c8 -14 16
-38 17 -55z m-1231 -214 c9 -16 6 -19 -19 -23 -34 -5 -34 -4 -20 23 13 24 26
24 39 0z m-16 -102 c7 -25 23 -24 30 1 7 29 26 25 33 -7 4 -16 14 -41 22 -58
8 -16 16 -44 17 -61 1 -29 -1 -31 -24 -24 -14 3 -27 12 -27 18 -1 7 -2 17 -3
22 0 6 -6 9 -12 8 -18 -5 -51 47 -59 90 -5 30 -4 39 6 35 6 -2 14 -13 17 -24z
m141 -178 c-6 -6 -24 19 -24 34 1 6 7 1 15 -9 8 -11 12 -22 9 -25z m-38 -18
c-7 -7 -26 7 -26 19 0 6 6 6 15 -2 9 -7 13 -15 11 -17z m1134 -48 c0 -5 -5 -3
-10 5 -5 8 -10 20 -10 25 0 6 5 3 10 -5 5 -8 10 -19 10 -25z m-42 -61 c0 -17
-4 -22 -11 -15 -5 5 -7 17 -4 25 9 23 15 19 15 -10z m-13 -154 c3 -5 1 -10 -4
-10 -6 0 -11 5 -11 10 0 6 2 10 4 10 3 0 8 -4 11 -10z m55 -11 c0 -6 -4 -7
-10 -4 -5 3 -10 11 -10 16 0 6 5 7 10 4 6 -3 10 -11 10 -16z m-750 -9 c0 -5
-7 -10 -15 -10 -8 0 -15 5 -15 10 0 6 7 10 15 10 8 0 15 -4 15 -10z m735 -10
c3 -5 1 -10 -4 -10 -6 0 -11 5 -11 10 0 6 2 10 4 10 3 0 8 -4 11 -10z m-815
-31 c0 -6 -4 -7 -10 -4 -5 3 -10 11 -10 16 0 6 5 7 10 4 6 -3 10 -11 10 -16z
m65 -38 c-3 -6 -11 -11 -17 -11 -6 0 -6 6 2 15 14 17 26 13 15 -4z m725 -41
c0 -5 -5 -10 -11 -10 -5 0 -7 5 -4 10 3 6 8 10 11 10 2 0 4 -4 4 -10z m87 -32
c-3 -8 -6 -5 -6 6 -1 11 2 17 5 13 3 -3 4 -12 1 -19z m-771 -4 c-3 -9 -6 -21
-7 -27 0 -7 -4 -3 -8 8 -9 22 -5 35 11 35 5 0 7 -7 4 -16z m268 7 c3 -5 -1
-11 -9 -14 -9 -4 -12 -1 -8 9 6 16 10 17 17 5z m360 -16 c9 -14 12 -25 7 -25
-5 0 -7 -10 -5 -22 3 -17 1 -15 -7 5 -8 21 -16 26 -30 22 -15 -5 -19 -1 -19
19 0 34 32 35 54 1z m-664 5 c0 -5 -5 -10 -11 -10 -5 0 -7 5 -4 10 3 6 8 10
11 10 2 0 4 -4 4 -10z m-139 -15 c18 4 20 4 10 -4 -13 -8 -13 -12 -1 -26 11
-14 11 -18 1 -25 -8 -4 -11 -12 -7 -18 3 -5 -1 -13 -10 -16 -12 -5 -15 -2 -10
10 5 12 1 14 -15 9 -16 -5 -20 -3 -17 6 3 8 15 13 27 12 13 -2 21 3 21 13 0 8
-4 12 -10 9 -5 -3 -10 0 -10 7 0 7 -10 1 -20 -14 -14 -18 -26 -24 -40 -21 -11
3 -20 9 -20 13 0 10 33 25 60 29 5 0 7 9 4 19 -5 13 -4 14 4 3 6 -8 18 -11 33
-6z m656 -7 c-3 -8 -6 -5 -6 6 -1 11 2 17 5 13 3 -3 4 -12 1 -19z m-216 -12
c-10 -12 -8 -15 11 -19 20 -4 20 -4 -4 -6 -29 -1 -40 -21 -13 -21 8 0 15 -4
15 -10 0 -5 -7 -10 -15 -10 -8 0 -15 5 -15 10 0 6 -7 10 -15 10 -8 0 -15 -7
-15 -15 0 -8 -5 -15 -11 -15 -5 0 -7 -4 -4 -10 3 -5 2 -10 -4 -10 -24 0 -21
24 8 52 17 17 31 27 31 22 0 -5 7 2 16 14 8 12 18 22 21 22 3 0 0 -6 -6 -14z
m-254 -137 c52 -56 57 -76 7 -28 -49 46 -114 128 -114 142 1 7 15 -6 33 -28
18 -22 51 -61 74 -86z m413 100 c0 -6 -5 -7 -11 -3 -8 4 -9 -1 -5 -17 6 -21 5
-22 -4 -6 -13 21 -6 52 10 42 5 -3 10 -11 10 -16z m-80 -11 c0 -36 -12 -46
-38 -32 l-24 12 23 21 c29 27 39 27 39 -1z m367 -20 c-3 -8 -6 -5 -6 6 -1 11
2 17 5 13 3 -3 4 -12 1 -19z m-327 -9 c0 -5 -4 -9 -10 -9 -5 0 -10 7 -10 16 0
8 5 12 10 9 6 -3 10 -10 10 -16z m-447 -53 c4 4 7 5 7 1 0 -20 -21 -11 -51 21
l-34 37 36 -33 c19 -18 38 -29 42 -26z m344 2 c-3 -8 -6 -5 -6 6 -1 11 2 17 5
13 3 -3 4 -12 1 -19z m53 2 c-24 -24 -30 -25 -30 -6 0 13 13 20 43 25 4 0 -2
-8 -13 -19z m-287 -4 c17 -13 24 -36 10 -36 -5 0 -16 12 -26 25 -19 27 -12 32
16 11z m309 -18 c-7 -7 -12 -8 -12 -2 0 14 12 26 19 19 2 -3 -1 -11 -7 -17z
m-236 -23 c41 -28 41 -30 -4 -14 -17 6 -33 17 -36 25 -7 19 -3 18 40 -11z m54
5 c0 -5 -4 -10 -10 -10 -5 0 -10 5 -10 10 0 6 5 10 10 10 6 0 10 -4 10 -10z
m170 -4 c0 -2 -7 -7 -16 -10 -8 -3 -12 -2 -9 4 6 10 25 14 25 6z m-140 -16 c0
-5 -4 -10 -10 -10 -5 0 -10 5 -10 10 0 6 5 10 10 10 6 0 10 -4 10 -10z m85 0
c3 -5 -1 -10 -9 -10 -8 0 -18 5 -21 10 -3 6 1 10 9 10 8 0 18 -4 21 -10z"/>
<path d="M1440 1803 c-31 -5 -70 -24 -70 -34 0 -6 99 27 109 37 4 4 3 4 -39
-3z"/>
<path d="M1425 1393 c-27 -41 -56 -48 -101 -24 -42 23 -59 27 -49 12 7 -12
-31 -25 -45 -16 -13 8 -13 -6 0 -39 5 -14 17 -26 25 -26 9 0 18 -7 21 -15 4
-8 12 -15 19 -15 7 0 15 -5 17 -12 6 -16 -30 -50 -43 -42 -7 4 -6 -2 1 -16 9
-18 9 -21 0 -15 -7 4 -16 1 -21 -6 -8 -12 -10 -12 -18 0 -7 10 -13 9 -34 -9
-29 -25 -43 -81 -27 -110 13 -25 33 -27 26 -2 -3 10 3 23 17 33 26 19 152 63
222 78 28 6 71 15 97 21 63 13 64 13 88 -12 26 -28 46 -12 35 29 -5 15 -8 31
-7 36 1 4 -2 7 -7 7 -5 0 -12 8 -15 18 -7 20 -44 39 -68 34 -9 -2 -15 -9 -12
-17 9 -22 -14 -27 -26 -5 -9 17 -14 19 -26 9 -11 -9 -14 -9 -14 1 0 9 -3 10
-13 1 -15 -12 -27 -5 -27 16 0 8 5 11 10 8 6 -3 10 2 10 12 0 10 7 27 15 37
22 28 18 43 -10 48 -18 4 -29 -1 -40 -19z m42 -145 c-3 -8 -6 -5 -6 6 -1 11 2
17 5 13 3 -3 4 -12 1 -19z m-132 -28 c3 -5 -1 -10 -10 -10 -9 0 -13 5 -10 10
3 6 8 10 10 10 2 0 7 -4 10 -10z"/>
<path d="M1496 1327 c3 -10 9 -15 12 -12 3 3 0 11 -7 18 -10 9 -11 8 -5 -6z"/>
<path d="M1660 1152 c0 -5 7 -13 16 -16 10 -4 14 -1 12 6 -5 15 -28 23 -28 10z"/>
<path d="M1480 1086 c0 -12 28 -55 32 -50 10 9 -3 42 -18 48 -8 3 -14 4 -14 2z"/>
<path d="M1301 1044 c0 -11 3 -14 6 -6 3 7 2 16 -1 19 -3 4 -6 -2 -5 -13z"/>
<path d="M1470 1046 c0 -9 5 -16 10 -16 6 0 10 4 10 9 0 6 -4 13 -10 16 -5 3
-10 -1 -10 -9z"/>
<path d="M1381 1043 c0 -7 -9 -13 -20 -13 -10 0 -24 -7 -31 -15 -10 -12 -10
-15 2 -15 8 0 19 5 26 12 9 9 12 8 12 -5 0 -14 4 -15 25 -5 14 6 25 18 25 26
0 11 -3 12 -14 3 -11 -10 -15 -8 -19 6 -3 10 -5 12 -6 6z"/>
<path d="M1151 1028 c-1 -9 -8 -21 -16 -26 -16 -8 -11 -42 6 -42 4 0 6 7 3 15
-4 8 -1 22 6 30 6 8 10 20 7 27 -4 8 -6 7 -6 -4z"/>
<path d="M1149 822 c-31 -36 -34 -46 -11 -40 12 4 22 2 22 -3 0 -15 47 -10 53
5 8 20 -18 41 -29 24 -6 -9 -10 -6 -14 10 -5 22 -6 22 -21 4z"/>
<path d="M1180 750 c0 -5 5 -10 10 -10 6 0 10 5 10 10 0 6 -4 10 -10 10 -5 0
-10 -4 -10 -10z"/>
<path d="M1891 904 c0 -11 3 -14 6 -6 3 7 2 16 -1 19 -3 4 -6 -2 -5 -13z"/>
<path d="M1928 765 c-3 -11 -9 -29 -13 -40 -3 -11 1 -7 10 8 9 16 15 33 12 40
-2 6 -6 3 -9 -8z"/>
<path d="M1941 732 c-6 -12 -11 -27 -11 -34 0 -7 7 0 15 16 9 16 13 31 11 33
-2 3 -9 -4 -15 -15z"/>
<path d="M1908 658 c-22 -34 -42 -74 -31 -63 14 15 55 85 50 85 -3 0 -11 -10
-19 -22z"/>
<path d="M1781 644 c0 -11 3 -14 6 -6 3 7 2 16 -1 19 -3 4 -6 -2 -5 -13z"/>
<path d="M1897 589 c-20 -38 -35 -69 -33 -69 7 0 79 130 75 135 -2 2 -21 -28
-42 -66z"/>
<path d="M1935 609 c-4 -6 -5 -12 -2 -15 2 -3 7 2 10 11 7 17 1 20 -8 4z"/>
<path d="M1932 544 c-18 -37 -31 -68 -30 -70 2 -2 19 26 37 62 18 36 31 67 29
69 -2 3 -19 -25 -36 -61z"/>
<path d="M1891 529 c-30 -49 -40 -73 -22 -53 13 14 64 104 58 104 -2 0 -18
-23 -36 -51z"/>
<path d="M1840 490 c-6 -11 -8 -20 -6 -20 3 0 10 9 16 20 6 11 8 20 6 20 -3 0
-10 -9 -16 -20z"/>
<path d="M0 351 c0 -20 7 -31 25 -39 17 -8 23 -17 18 -28 -3 -9 -1 -19 5 -23
7 -4 8 -28 2 -76 -5 -39 -6 -80 -3 -92 7 -30 59 -39 118 -22 l45 13 0 92 c0
71 -4 96 -16 108 -8 9 -14 16 -12 17 2 0 19 2 38 5 l36 4 -3 -113 c-3 -109 -2
-114 20 -124 14 -7 113 -10 282 -8 143 2 283 3 310 3 68 -1 187 -1 260 0 33 1
191 1 350 0 160 0 297 0 305 1 8 1 155 -2 326 -5 348 -6 366 -4 404 58 15 25
20 50 20 108 -1 79 -8 97 -50 121 -32 17 -35 17 -282 19 -141 1 -214 -2 -228
-10 -17 -9 -33 -9 -68 0 -25 6 -84 11 -132 10 -47 -1 -94 -1 -105 -1 -11 1
-69 1 -130 0 -154 -1 -160 -1 -252 2 -56 2 -86 -1 -97 -10 -10 -8 -28 -11 -48
-7 -161 28 -174 29 -228 13 -30 -9 -58 -13 -64 -10 -21 13 -147 18 -311 13
-33 -1 -167 0 -297 3 l-238 5 0 -27z m820 -50 c-5 -11 -11 -30 -11 -43 -1 -16
-3 -18 -6 -6 -2 9 -17 23 -33 29 -28 13 -28 13 -7 25 12 7 32 12 45 13 19 1
21 -2 12 -18z m858 -11 c-1 -32 -9 -35 -73 -31 -56 3 -76 11 -73 28 4 20 36
31 100 32 46 1 47 0 46 -29z m556 8 c9 -36 -8 -45 -71 -40 -55 4 -83 15 -83
32 0 14 46 28 96 28 45 1 53 -2 58 -20z m-1614 -51 c0 -36 -5 -68 -12 -75 -9
-9 -8 -15 8 -27 20 -15 19 -16 -34 -20 -27 -2 -35 2 -42 21 -5 13 -16 24 -25
24 -20 0 -19 13 4 34 11 10 17 24 14 32 -3 8 0 14 7 14 7 0 10 7 6 16 -9 24
12 44 45 44 29 0 29 0 29 -63z m1798 2 c5 -40 2 -83 -6 -90 -4 -4 -23 -9 -42
-13 l-35 -6 0 73 c0 39 4 77 8 84 12 19 71 -18 75 -48z m-1320 36 c13 -13 -25
-25 -80 -25 -59 0 -68 6 -45 29 12 13 112 10 125 -4z m317 5 c3 -4 -3 -14 -13
-21 -12 -11 -39 -13 -99 -11 -83 4 -103 14 -60 32 25 11 165 11 172 0z m249
-90 c20 -7 25 -15 22 -32 -3 -13 -5 -29 -5 -36 -1 -11 -18 -13 -73 -10 -72 4
-73 5 -78 34 -5 28 -4 29 50 40 30 7 56 12 57 13 1 1 13 -3 27 -9z m294 4 c13
-4 22 -14 22 -26 0 -18 -4 -19 -37 -13 -47 8 -48 10 -32 29 16 18 17 18 47 10z
m280 -44 l2 -40 -63 1 c-88 1 -95 5 -89 56 2 14 29 20 98 22 l51 1 1 -40z
m-1243 20 c-3 -5 -14 -14 -23 -19 -14 -7 -18 -5 -19 8 -1 11 7 17 23 19 15 1
22 -2 19 -8z m285 -4 c0 -21 -21 -31 -30 -15 -5 7 -6 17 -4 21 9 14 34 9 34
-6z m-470 -37 c10 -18 9 -20 -7 -17 -10 2 -19 11 -21 21 -5 24 15 21 28 -4z"/>
</g>
</svg>
